# xmcd
#
# Track frame offsets: 
#        150
#        19167
#        40657
#        56810
#        74100
#        84867
#        99685
#        114125
#        129757
#        145790
#        164417
#        177102
#        192762
#        207435
#        221037
#        235865
#        270555
#        284757
#        298685
#
# Disc length: 4184 seconds
#
# Revision: 4
# Processed by: cddbd v1.5.2PL0 Copyright (c) Steve Scherf et al.
# Submitted via: ExactAudioCopy v1.0b6
#
DISCID=1d105613
DTITLE=鄭秀文 - 903 拉闊音樂
DYEAR=2001
DGENRE=Pop
TTITLE0=LMF - 大懶堂
TTITLE1=鄭秀文＋LMF - 愛是
TTITLE2=發熱發亮
TTITLE3=插曲
TTITLE4=快樂不快樂
TTITLE5=浪花一朵朵
TTITLE6=問我
TTITLE7=鄭秀文＋孫燕姿 - 如何掉眼淚
TTITLE8=天黑黑
TTITLE9=感情線上
TTITLE10=醫生與我
TTITLE11=鄭秀文＋古巨基 - 歡樂今宵
TTITLE12=鄭秀文＋古巨基 - 捨不得你
TTITLE13=鄭秀文＋梁詠琪 - 花火
TTITLE14=鄭秀文＋梁詠琪 - Today
TTITLE15=Medley：放不低／默契／不拖不欠／我們的主題曲
TTITLE16=終身美麗
TTITLE17=花花宇宙
TTITLE18=鄭秀文＋MC Yan - 煞科
EXTD=YEAR: 2001 ID3G:  13
EXTT0=
EXTT1=
EXTT2=
EXTT3=
EXTT4=
EXTT5=
EXTT6=
EXTT7=
EXTT8=
EXTT9=
EXTT10=
EXTT11=
EXTT12=
EXTT13=
EXTT14=
EXTT15=
EXTT16=
EXTT17=
EXTT18=
PLAYORDER=
